<svg xmlns="http://www.w3.org/2000/svg" viewBox="0 0 157.08 157.08">
    <title>Asset 8</title>
    <g id="Layer_2" data-name="Layer 2">
        <g id="Layer_1-2" data-name="Layer 1">
            <circle cx="78.54" cy="78.54" r="78.54" style="fill:#fff;opacity:0.2"/>
            <circle cx="78.54" cy="76.54" r="62.29" style="fill:#fff;opacity:0.2"/>
            <path d="M58.84,45l-9.41,9.6A8.56,8.56,0,0,0,47,60.36c-.2,6,1.82,18.4,17.93,34.11s28.55,18,34.5,18a8.57,8.57,0,0,0,5.89-2.32l10.36-9.67a1.5,1.5,0,0,0-.25-2.37L99,88.17a1.5,1.5,0,0,0-1.58,0l-6.67,4.24a3.3,3.3,0,0,1-2.67.4C86,92.27,82,90.53,76.39,85.1,70.42,79.33,68,74.29,67,71.8a3.3,3.3,0,0,1,.32-3L71,63.13a1.48,1.48,0,0,0,0-1.58L61.2,45.3A1.51,1.51,0,0,0,58.84,45Z"
                  style="fill:#ff8100"/>
        </g>
    </g>
</svg>