<svg xmlns="http://www.w3.org/2000/svg" viewBox="0 0 79.82 79.82">
    <defs>
        <style>.cls-1{fill:#ff8100;}.cls-2{fill:none;stroke:#ff8000;stroke-miterlimit:10;stroke-width:2.98px;}</style>
    </defs>
    <title>Asset 12</title>
    <g id="Layer_2" data-name="Layer 2">
        <g id="Layer_1-2" data-name="Layer 1">
            <path class="cls-1"
                  d="M52.32,45.79H46.73l-3.06-8.17.29-.28A7.28,7.28,0,0,0,40.19,25l-.51-.1-.06-6.25-1.72,0L38,24.92l-.52.1A7.28,7.28,0,0,0,33.34,37l.25.28-3,8.55H25.19v1.72h4.75L25.73,59.4l.5.18-.48,1.36.59.21.48-1.36.53.19,4.42-12.47H38.2v1.54h1.11V47.51h6.23L50.22,60l.52-.19.48,1.35.59-.21-.48-1.36.5-.19L47.38,47.51h4.94ZM33.26,32.17a5.57,5.57,0,1,1,5.57,5.57A5.58,5.58,0,0,1,33.26,32.17Zm6.05,13.62V44.65H38.2v1.14H32.38L35,38.41l.63.31a7.24,7.24,0,0,0,6,.18l.61-.25,2.68,7.14Z"/>
            <rect class="cls-2" x="1.49" y="1.49" width="76.84" height="76.84"/>
        </g>
    </g>
</svg>