<svg xmlns="http://www.w3.org/2000/svg" viewBox="0 0 79.82 79.82">
    <defs>
        <style>
            .cls-1,.cls-2,.cls-3{fill:none;stroke-miterlimit:10;}.cls-1{stroke:#ff8000;stroke-width:2.98px;}.cls-2,.cls-3{stroke:#ff8100;}.cls-2{stroke-width:2px;}.cls-4{fill:#ff8100;}
        </style>
    </defs>
    <title>Asset 14</title>
    <g id="Layer_2" data-name="Layer 2">
        <g id="Layer_1-2" data-name="Layer 1">
            <rect class="cls-1" x="1.49" y="1.49" width="76.84" height="76.84"/>
            <path class="cls-2"
                  d="M16.54,38.48a33,33,0,0,1,12.25-9.76,23.56,23.56,0,0,1,4.59-1.53,23,23,0,0,1,11.5.32,28.28,28.28,0,0,1,4.41,1.66,44.22,44.22,0,0,1,12.54,9.31"/>
            <path class="cls-2" d="M18,36.74l-1.44,1.74s19.1,26.71,45.29,0l-1.16-1.14"/>
            <path class="cls-3"
                  d="M51.2,35.76a12.31,12.31,0,1,1-22.41-7,23.56,23.56,0,0,1,4.59-1.53,23,23,0,0,1,11.5.32,28.28,28.28,0,0,1,4.41,1.66A12.27,12.27,0,0,1,51.2,35.76Z"/>
            <circle class="cls-4" cx="38.9" cy="36.05" r="3.92"/>
        </g>
    </g>
</svg>