<?xml version="1.0" encoding="utf-8"?>
<!-- Generator: Adobe Illustrator 22.0.1, SVG Export Plug-In . SVG Version: 6.00 Build 0)  -->
<svg version="1.1" id="Layer_1" xmlns="http://www.w3.org/2000/svg" xmlns:xlink="http://www.w3.org/1999/xlink" x="0px" y="0px"
	 viewBox="0 0 79.8 79.8" style="enable-background:new 0 0 79.8 79.8;" xml:space="preserve">
<style type="text/css">
	.st0{fill:none;stroke:#FF8000;stroke-width:2.98;stroke-miterlimit:10;}
	.st1{fill:none;stroke:#FF8000;stroke-width:2;stroke-miterlimit:10;}
	.st2{fill:none;stroke:#FF8000;stroke-width:0.92;stroke-miterlimit:10;}
	.st3{fill:none;stroke:#FF8000;stroke-width:0.46;stroke-miterlimit:10;}
	.st4{fill:#FF8000;}
	.st5{fill:none;stroke:#FF8000;stroke-width:0.11;stroke-miterlimit:10;}
	.st6{fill:none;stroke:#FF8000;stroke-miterlimit:10;}
</style>
<title>Asset 7</title>
<g id="Layer_2_1_">
	<g id="Layer_1-2">
		<rect x="1.5" y="1.5" class="st0" width="76.8" height="76.8"/>
		<rect x="13.4" y="15.3" class="st1" width="28.4" height="27.3"/>
		<path class="st2" d="M62.4,31.3l3.8,3.8c0,0.1,0,0.1,0,0.2L41.8,59.6l0,0l-9.7,6c-0.1,0.1-0.3,0-0.4-0.1c-0.1-0.1-0.1-0.2,0-0.3
			l6.1-9.5l0,0l24.3-24.4C62.3,31.3,62.3,31.3,62.4,31.3z"/>
		<path class="st3" d="M37.8,55.7l2.2-0.2c0.2,0,0.3,0.1,0.3,0.3c0,0,0,0.1,0,0.1l-0.6,1.5c-0.1,0.2,0,0.3,0.2,0.4
			c0.1,0,0.1,0,0.2,0l1.5-0.6c0.1-0.1,0.3,0,0.4,0.1c0,0,0,0.1,0,0.1l-0.2,2.1"/>
		<rect x="58.5" y="32.6" transform="matrix(0.7071 -0.7071 0.7071 0.7071 -6.8763 54.2252)" class="st4" width="7" height="5.6"/>
		<line class="st5" x1="41.9" y1="57.2" x2="60.4" y2="38.7"/>
		<line class="st5" x1="39.8" y1="57.7" x2="59.6" y2="37.9"/>
		<line class="st5" x1="40.3" y1="55.6" x2="58.8" y2="37.1"/>
		<path class="st6" d="M31.3,65.6c-11.1-9-12.9-25.3-3.9-36.5s25.3-12.9,36.5-3.9"/>
	</g>
</g>
</svg>
