<svg xmlns="http://www.w3.org/2000/svg" viewBox="0 0 34.14 33.08">
    <title>Asset 15</title>
    <g id="Layer_2" data-name="Layer 2">
        <g id="Layer_2-2" data-name="Layer 2">
            <path d="M13.3,33a2.29,2.29,0,0,1-2.41-2.47L11,15a2.31,2.31,0,0,1,1.18-2.14,2.36,2.36,0,0,1,1.19-.31,1.1,1.1,0,0,0,1.05-.66A17.29,17.29,0,0,0,16,7.26a10.11,10.11,0,0,0,.07-3.47A3.12,3.12,0,0,1,17.92.24,2.74,2.74,0,0,1,19.06,0a3.13,3.13,0,0,1,2.49,1.26,11.55,11.55,0,0,1,2.33,7.55,11,11,0,0,1-.5,2.92l-.09.34-.13.53,7.77,0a3.28,3.28,0,0,1,1.67.42,3,3,0,0,1,1.5,2.14l0,.18v.77l-.13.3c-.13.31-.25.62-.4.92a1.69,1.69,0,0,1-.27.36l-.28.36.28.36a1.78,1.78,0,0,1,.27.38c.14.29.26.6.38.9l.15.39,0,.84-.14.29c-.12.3-.24.61-.38.9a2.31,2.31,0,0,1-.28.38l-.29.35.29.36a1.65,1.65,0,0,1,.24.34c.15.31.28.63.4.95l.16.39,0,.79-.08.23a4.33,4.33,0,0,1-.22.61,8.21,8.21,0,0,1-.47.73l-.34.48.25.36a3.3,3.3,0,0,1,.31.48,2.93,2.93,0,0,1-.37,3.46,2.88,2.88,0,0,1-2.29,1L21.8,33Zm17.3-1.2a2.59,2.59,0,0,0,.62,0,1.67,1.67,0,0,0,1.37-1.26,1.64,1.64,0,0,0-.5-1.71A1.94,1.94,0,0,0,31,28.3a.67.67,0,0,1-.53-.38.68.68,0,0,1,.09-.65c.14-.21.33-.24.67-.27a1.8,1.8,0,0,0,1.51-1.24,1.73,1.73,0,0,0-.56-1.84,2,2,0,0,0-1.12-.42.63.63,0,0,1-.6-.49.54.54,0,0,1,.2-.62,1.4,1.4,0,0,1,.58-.18,1.77,1.77,0,0,0,1.59-1.77,1.72,1.72,0,0,0-1.61-1.71.75.75,0,0,1-.26,0,.65.65,0,0,1-.5-.53.6.6,0,0,1,.33-.64,1.36,1.36,0,0,1,.43-.1,1.83,1.83,0,0,0,1.37-.82A1.74,1.74,0,0,0,31,13.93l-4.76,0H22.5a1,1,0,0,1-.83-.31,1,1,0,0,1,0-.92A10.88,10.88,0,0,0,22,4.8,8.6,8.6,0,0,0,20.4,1.91a1.72,1.72,0,0,0-1.31-.61,1.74,1.74,0,0,0-1.6,1,2.27,2.27,0,0,0-.1,1.4,11.79,11.79,0,0,1-.59,5.7,30.46,30.46,0,0,1-1.29,3.06l-.06.13a2.12,2.12,0,0,1-1.95,1.23c-.92.05-1.25.39-1.25,1.27l-.07,15.27a3.31,3.31,0,0,0,0,.45.94.94,0,0,0,.75.83,2.87,2.87,0,0,0,.52.05l8.59.05Z"
                  style="fill:#ff8100"/>
            <path d="M2,32.94A1.88,1.88,0,0,1,.16,31.53L0,31,.09,14.49a1,1,0,0,0,.14-.28,4.22,4.22,0,0,1,.35-.78A1.57,1.57,0,0,1,2,12.66H5.12c.89,0,1.79,0,2.68,0a2,2,0,0,1,1.82,1.86,4.61,4.61,0,0,1,0,.53L9.57,30.64a2.45,2.45,0,0,1-.74,1.87A1.78,1.78,0,0,1,7.57,33H4.31Zm.23-19a.76.76,0,0,0-.82.7,2.55,2.55,0,0,0,0,.39L1.32,30.46a2.36,2.36,0,0,0,0,.47.74.74,0,0,0,.82.73l5.27,0A.71.71,0,0,0,8.25,31a2.09,2.09,0,0,0,0-.43l.07-15.38a3.19,3.19,0,0,0,0-.54A.72.72,0,0,0,7.51,14H2.23Z"
                  style="fill:#ff8100"/>
        </g>
    </g>
</svg>