<svg xmlns="http://www.w3.org/2000/svg" viewBox="0 0 13.54 18.01">
    <defs>
        <style>.cls-1{fill:none;stroke:#ff8100;stroke-miterlimit:10;stroke-width:0.38px;}</style>
    </defs>
    <title>Asset 9</title>
    <g id="Layer_2" data-name="Layer 2">
        <g id="Layer_1-2" data-name="Layer 1">
            <path class="cls-1"
                  d="M6.76,17.73c-.67-.82-1.35-1.62-2-2.44a34.2,34.2,0,0,1-3.49-5.17,9.81,9.81,0,0,1-1-2.55A5.69,5.69,0,0,1,.71,4.21,6.59,6.59,0,0,1,13.32,6a6,6,0,0,1-.58,3.2,23.41,23.41,0,0,1-2.38,4,52.83,52.83,0,0,1-3.43,4.35Zm3.31-11.5A3.29,3.29,0,1,0,6.76,9.5,3.3,3.3,0,0,0,10.07,6.23Z"/>
        </g>
    </g>
</svg>