<svg xmlns="http://www.w3.org/2000/svg" viewBox="0 0 15.45 15.18">
    <defs>
        <style>.cls-1{fill:none;stroke:#ff8100;stroke-miterlimit:10;stroke-width:0.38px;}</style>
    </defs>
    <title>Asset 7</title>
    <g id="Layer_2" data-name="Layer 2">
        <g id="Layer_1-2" data-name="Layer 1">
            <path class="cls-1"
                  d="M2.78.29l-2,2.09A1.88,1.88,0,0,0,.19,3.63c0,1.29.4,4,3.91,7.43S10.32,15,11.62,15a1.91,1.91,0,0,0,1.28-.5l2.26-2.11a.33.33,0,0,0-.06-.52L11.53,9.69a.32.32,0,0,0-.34,0l-1.46.93a.74.74,0,0,1-.58.09A6.48,6.48,0,0,1,6.6,9a8.3,8.3,0,0,1-2-2.9.73.73,0,0,1,.07-.64l.8-1.25a.3.3,0,0,0,0-.34L3.29.35A.32.32,0,0,0,2.78.29Z"/>
        </g>
    </g>
</svg>