<svg xmlns="http://www.w3.org/2000/svg" viewBox="0 0 43.02 21.7">
    <title>Asset 14</title>
    <g id="Layer_2" data-name="Layer 2">
        <g id="Layer_2-2" data-name="Layer 2">
            <path d="M43,11C42.7,10.53,35,.75,23,0,15.21-.42,7.48,3.16.05,10.69v0l-.06,0C.32,11.17,8.05,21,20,21.66c.42,0,.83,0,1.24,0,7.4,0,14.72-3.55,21.75-10.69h0Zm-23,9.38c-9.25-.55-16-7.09-18.24-9.51C8.71,4.14,15.81,1,22.94,1.38c9.26.54,16,7.08,18.25,9.5C34.31,17.56,27.21,20.74,20.07,20.33Z"
                  style="fill:#ff8000"/>
            <path d="M21.54,5.12a6.15,6.15,0,1,0,6.11,6.17A6.15,6.15,0,0,0,21.54,5.12Zm-.05,11a4.81,4.81,0,1,1,4.82-4.79A4.82,4.82,0,0,1,21.49,16.07Z"
                  style="fill:#ff8000"/>
        </g>
    </g>
</svg>